<?xml version="1.0"?>
<!DOCTYPE svg PUBLIC "-//W3C//DTD SVG 1.1//EN"
  "http://www.w3.org/Graphics/SVG/1.1/DTD/svg11.dtd">
<!-- Public Domain "Test Tube"
     Retrieved from https://thenounproject.com/term/test-tube/13589/ 
     on 2016-03-22 -->
<svg xmlns="http://www.w3.org/2000/svg"
  xmlns:xlink="http://www.w3.org/1999/xlink" version="1.1" x="0px" y="0px"
  viewBox="0 0 100 100" enable-background="new 0 0 100 100"
  xml:space="preserve">
    <g style="fill:rgb(183,186,255);">
        <path d="M44,61L44,86.054C44,89.338 46.716,92 50,92C53.283,92 56,89.338
          56,86.054L56,61L44,61Z" />
        <g transform="matrix(1,0,0,1,32.2094,0)">
            <path d="M44,61L44,86.054C44,89.338 46.716,92 50,92C53.283,92
              56,89.338 56,86.054L56,61L44,61Z" />
        </g>
        <g transform="matrix(1,0,0,1,-31.9513,0)">
            <path d="M44,61L44,86.054C44,89.338 46.716,92 50,92C53.283,92
              56,89.338 56,86.054L56,61L44,61Z" />
        </g>
        <circle cx="52.175" cy="54.608" r="3.716" />
        <g transform="matrix(1,0,0,1,32.2094,0)">
            <circle cx="52.175" cy="54.608" r="3.716" />
        </g>
        <g transform="matrix(1,0,0,1,-31.9513,0)">
            <circle cx="52.175" cy="54.608" r="3.716" />
        </g>
        <circle cx="46.229" cy="41.229" r="2.229" />
        <g transform="matrix(1,0,0,1,32.2094,0)">
            <circle cx="46.229" cy="41.229" r="2.229" />
        </g>
        <g transform="matrix(1,0,0,1,-31.9513,0)">
            <circle cx="46.229" cy="41.229" r="2.229" />
        </g>
        <g transform="matrix(1,0,0,1,32.2094,0)">
            <path d="M63.919,4L60,8.231L60,86.107C60,86.107 59.893,96
              50,96C40.107,96 40,86.107 40,86.107L40,49.506L40,8.231L36.031,4L
              64,4M63.58,0L36.031,0C34.44,0 33,0.942 32.364,2.4C31.728,3.858
              32.038,5.554 33.12,6.72L36,9.802L36,86.108C36,91.691 39.808,100
              50,100C60.192,100 64,91.691 64,86.107L64,49.506L64,9.775L66.672,
              6.687C67.735,5.515 67.943,3.826 67.302,2.379C66.661,0.933 65.194,
              0 63.612,0L63.58,0Z" />
        </g>
        <g transform="matrix(1,0,0,1,-31.9513,0)">
            <path d="M63.919,4L60,8.231L60,86.107C60,86.107 59.893,96 50,
              96C40.107,96 40,86.107 40,86.107L40,49.506L40,8.231L36.031,4L64,
              4M63.58,0L36.031,0C34.44,0 33,0.942 32.364,2.4C31.728,3.858
              32.038,5.554 33.12,6.72L36,9.802L36,86.108C36,91.691 39.808,100
              50,100C60.192,100 64,91.691 64,86.107L64,49.506L64,9.775L66.672,
              6.687C67.735,5.515 67.943,3.826 67.302,2.379C66.661,0.933 65.194,
              0 63.612,0L63.58,0Z" />
        </g>
        <path d="M63.919,4L60,8.231L60,86.107C60,86.107 59.893,96 50,96C40.107,
          96 40,86.107 40,86.107L40,49.506L40,8.231L36.031,4L64,4M63.58,
          0L36.031,0C34.44,0 33,0.942 32.364,2.4C31.728,3.858 32.038,5.554
          33.12,6.72L36,9.802L36,86.108C36,91.691 39.808,100 50,100C60.192,100
          64,91.691 64,86.107L64,49.506L64,9.775L66.672,6.687C67.735,5.515
          67.943,3.826 67.302,2.379C66.661,0.933 65.194,0 63.612,0L63.58,0Z" />
    </g>
</svg>
