<?xml version="1.0"?>
<!-- Public Domain "Test Tube"
     Retrieved from https://thenounproject.com/term/test-tube/13589/ 
     on 2016-03-22 -->
<svg xmlns="http://www.w3.org/2000/svg"
  xmlns:xlink="http://www.w3.org/1999/xlink" version="1.1" x="0px" y="0px"
  viewBox="0 0 100 100" enable-background="new 0 0 100 100"
  xml:space="preserve">
  <g>
    <path d="M44,61v25.054C44,89.338,46.716,92,50,92c3.283,0,6-2.662,6-5.946
      V61H44z"/>
    <circle cx="52.175" cy="54.608" r="3.716"/>
    <circle cx="46.229" cy="41.229" r="2.229"/>
    <path d="M63.919,4L60,8.231v41.274v36.602c0,0-0.107,9.893-10,9.893
      s-10-9.893-10-9.893V49.506V8.231L36.031,4H64 M63.58,0H36.031
      C34.44,0,33,0.942,32.364,2.4c-0.636,1.458-0.326,3.154,0.756,4.32
      L36,9.802v39.704v36.602C36,91.691,39.808,100,50,100
      s14-8.309,14-13.893V49.506V9.775l2.672-3.088
      c1.063-1.172,1.271-2.861,0.63-4.308
      C66.661,0.933,65.194,0,63.612,0H63.58z"/>
  </g>
</svg>
